<?xml version="1.0" standalone="no"?>
<!DOCTYPE svg PUBLIC "-//W3C//DTD SVG 20010904//EN"
 "http://www.w3.org/TR/2001/REC-SVG-20010904/DTD/svg10.dtd">
<svg version="1.0" xmlns="http://www.w3.org/2000/svg"
 width="365.000000pt" height="365.000000pt" viewBox="0 0 365.000000 365.000000"
 preserveAspectRatio="xMidYMid meet">
<metadata>
Created by potrace 1.14, written by Peter Selinger 2001-2017
</metadata>
<g transform="translate(0.000000,365.000000) scale(0.100000,-0.100000)"
fill="#000000" stroke="none">
<path d="M1806 3569 c-76 -8 -165 -28 -181 -39 -5 -4 -23 -10 -40 -13 -52 -9
-177 -57 -203 -77 -14 -11 -37 -20 -53 -20 -15 0 -41 -11 -57 -25 -17 -14 -37
-25 -45 -25 -9 0 -24 -10 -34 -23 -10 -13 -40 -34 -67 -48 -27 -13 -60 -39
-73 -56 -14 -18 -29 -30 -34 -28 -13 8 -140 -130 -185 -200 -10 -16 -42 -54
-71 -83 -38 -37 -53 -60 -53 -79 0 -15 -9 -36 -19 -47 -11 -12 -36 -52 -57
-91 -20 -38 -42 -77 -49 -85 -7 -8 -21 -33 -31 -55 -10 -22 -23 -45 -30 -52
-6 -6 -14 -34 -18 -61 -3 -27 -27 -98 -52 -158 -24 -60 -43 -117 -40 -126 2
-9 -1 -38 -6 -65 -5 -26 -10 -52 -9 -58 11 -150 10 -190 -5 -278 -12 -72 -13
-102 -5 -110 6 -6 11 -23 11 -37 0 -14 5 -31 12 -38 7 -7 15 -63 19 -139 7
-131 12 -156 48 -255 12 -32 21 -71 21 -87 0 -20 7 -34 20 -41 25 -13 25 -29
3 -46 -16 -11 -15 -14 20 -28 40 -17 50 -46 17 -46 -19 0 -20 -2 -6 -28 11
-22 39 -39 116 -73 99 -43 165 -94 216 -167 8 -12 47 -42 87 -68 40 -26 95
-67 122 -93 61 -57 206 -169 260 -201 22 -13 89 -56 150 -94 60 -39 141 -84
180 -99 96 -38 274 -60 419 -52 124 8 106 5 248 41 l107 26 22 57 c41 102 297
503 374 586 139 149 170 200 220 355 33 102 34 112 40 315 3 116 8 251 11 302
l6 92 25 -10 c33 -12 33 -12 33 16 0 19 5 25 18 23 15 -3 17 9 20 117 3 119 1
135 -43 315 -9 36 -23 94 -31 130 -8 36 -19 73 -24 82 -23 42 9 54 40 16 10
-13 21 -20 25 -16 6 6 -17 58 -66 148 -25 46 -79 173 -89 208 -6 23 -15 44
-21 48 -6 3 -19 25 -28 48 -10 23 -26 47 -35 55 -9 7 -16 22 -16 32 0 11 -21
35 -50 56 -27 20 -50 42 -50 48 0 7 -12 22 -26 36 l-26 24 6 -23 c16 -49 -23
-33 -136 57 -110 87 -113 89 -129 70 -15 -20 -16 -20 -58 15 -24 20 -48 36
-54 36 -7 0 0 -10 16 -21 30 -23 36 -49 12 -49 -9 0 -27 11 -41 25 -27 27 -44
25 -44 -6 0 -12 11 -24 28 -31 85 -37 224 -129 283 -188 89 -88 114 -125 181
-260 61 -122 61 -138 -1 -106 -35 19 -245 29 -276 13 -31 -15 -95 -79 -112
-112 -16 -29 -22 -160 -8 -173 3 -4 15 -1 26 6 16 10 24 10 35 1 19 -16 18
-29 -8 -56 -19 -21 -20 -25 -7 -49 7 -14 33 -35 56 -46 46 -21 50 -39 8 -30
-34 6 -32 -11 8 -53 45 -49 126 -76 240 -79 94 -3 108 2 135 49 6 12 14 15 23
9 8 -5 21 -7 29 -6 9 1 16 -5 17 -15 0 -10 6 -43 13 -73 18 -80 21 -109 24
-270 2 -80 0 -153 -5 -162 -5 -9 -9 -63 -9 -120 1 -57 0 -112 0 -123 0 -11 -1
-47 0 -79 0 -37 -5 -68 -15 -82 -8 -13 -15 -34 -15 -48 0 -28 -8 -34 -65 -56
-28 -11 -41 -22 -43 -38 -4 -29 -39 -52 -77 -52 -16 0 -43 -7 -60 -16 -18 -10
-56 -17 -95 -18 -36 0 -69 -4 -75 -7 -5 -3 -42 -7 -82 -8 -69 -2 -74 -1 -131
38 -33 23 -62 51 -65 62 -3 13 -11 19 -19 16 -7 -4 -32 -12 -55 -19 -30 -8
-43 -18 -43 -30 0 -22 -35 -24 -44 -3 -3 8 -15 15 -27 15 -13 0 -30 7 -39 15
-9 8 -30 17 -46 18 -16 2 -44 12 -62 21 -19 10 -40 15 -47 12 -8 -3 -25 4 -39
15 -14 11 -26 17 -26 13 0 -4 -18 12 -41 34 -22 23 -44 42 -48 42 -4 0 -24 16
-45 35 -21 19 -42 35 -47 35 -5 0 -9 5 -9 11 0 16 -93 129 -106 129 -18 0 -39
31 -36 53 4 20 -33 67 -54 67 -11 0 -22 16 -21 30 0 3 -5 15 -12 28 -9 17 -18
21 -35 16 -21 -5 -23 -3 -19 20 4 20 0 28 -19 35 -26 10 -43 56 -32 85 3 8 -7
23 -25 36 -17 12 -31 30 -31 40 0 10 -9 21 -19 25 -11 3 -23 15 -26 26 -4 11
-24 31 -46 46 -21 14 -39 32 -39 39 0 7 -11 21 -25 30 -14 9 -25 21 -25 28 -1
16 -40 59 -74 80 l-29 18 7 96 c4 53 12 102 18 109 5 7 7 21 3 33 -4 13 1 29
14 46 12 15 21 37 21 50 0 12 11 35 24 50 l23 28 50 -47 c28 -26 55 -47 61
-47 25 0 90 -37 142 -81 74 -62 121 -84 209 -99 80 -13 186 -2 244 27 35 17
34 28 -3 45 -16 7 -30 16 -30 19 0 7 104 22 156 23 31 1 64 20 64 38 0 5 -16
16 -35 24 -45 18 -45 34 0 34 24 0 37 -6 45 -20 14 -26 54 -26 80 0 59 59 75
161 37 238 -28 56 -126 137 -186 153 -65 17 -211 19 -238 3 -17 -10 -22 -11
-26 -1 -6 15 -65 21 -81 8 -6 -5 -27 -12 -46 -16 -40 -8 -142 -57 -178 -86
-14 -10 -33 -19 -42 -19 -10 0 -23 -6 -29 -13 -6 -8 -30 -20 -53 -27 -24 -7
-47 -17 -52 -22 -20 -16 -27 -7 -21 25 4 17 14 40 22 49 19 21 8 41 -18 33
-29 -9 -23 11 16 54 19 21 35 43 35 49 0 5 7 12 15 15 8 3 23 25 35 49 34 70
67 109 112 133 25 13 44 31 46 43 2 10 14 24 28 30 13 7 24 17 24 24 0 15 93
73 116 73 8 0 18 6 23 13 9 14 37 21 111 27 25 1 63 6 85 9 96 14 178 15 298
4 70 -6 127 -15 127 -20 0 -4 9 -8 20 -8 11 0 20 7 20 15 0 8 -8 15 -18 15
-18 0 -59 36 -51 44 2 2 20 -1 40 -8 43 -15 69 -5 69 25 0 23 -25 36 -43 21
-7 -6 -18 -7 -25 -3 -8 4 -24 6 -36 4 -16 -4 -29 3 -45 22 -11 15 -21 33 -21
40 0 16 -57 28 -77 16 -9 -4 -30 -3 -52 5 -53 19 -83 18 -79 -3 3 -19 -30 -25
-89 -16 -53 8 -38 23 23 23 33 0 53 4 49 10 -6 10 -31 10 -139 -1z m39 -105
c19 -13 18 -14 -7 -14 -37 0 -58 10 -58 27 0 16 31 10 65 -13z m-208 -51 c-3
-32 -10 -51 -23 -59 -24 -15 -174 -27 -174 -15 0 10 49 48 90 69 16 9 26 10
28 3 6 -19 22 -12 22 9 0 18 26 37 53 39 4 1 6 -20 4 -46z m1293 -456 c0 -5
-4 -5 -10 -2 -5 3 -10 14 -10 23 0 15 2 15 10 2 5 -8 10 -19 10 -23z m65 -57
c3 -5 1 -10 -4 -10 -6 0 -11 5 -11 10 0 6 2 10 4 10 3 0 8 -4 11 -10z m-1190
-135 c22 -8 45 -22 50 -31 6 -9 21 -30 34 -46 21 -25 22 -32 11 -58 -7 -17
-16 -30 -21 -30 -5 0 -9 -6 -9 -14 0 -20 -62 -38 -107 -31 -133 21 -169 34
-143 50 17 11 11 54 -10 67 -25 16 -25 39 -2 68 30 38 127 50 197 25z m-635
-49 c0 -3 -4 -8 -10 -11 -5 -3 -10 -1 -10 4 0 6 5 11 10 11 6 0 10 -2 10 -4z
m-20 -50 c0 -8 -4 -17 -9 -21 -12 -7 -24 12 -16 25 9 15 25 12 25 -4z m1648
-92 c4 -5 16 -14 27 -20 11 -6 28 -25 39 -43 15 -26 17 -39 8 -71 -8 -33 -7
-42 9 -56 11 -9 19 -20 19 -24 0 -4 -48 6 -107 21 -165 43 -168 44 -172 65 -6
33 -21 44 -52 37 -16 -3 -29 -2 -29 1 0 20 25 49 53 62 18 9 43 22 57 30 27
16 136 15 148 -2z m-443 -2044 c-3 -5 -10 -10 -16 -10 -5 0 -9 5 -9 10 0 6 7
10 16 10 8 0 12 -4 9 -10z"/>
<path d="M2716 3292 c-3 -6 -1 -14 5 -17 14 -9 20 -2 10 14 -6 8 -11 9 -15 3z"/>
<path d="M2750 3251 c0 -6 4 -13 10 -16 6 -3 7 1 4 9 -7 18 -14 21 -14 7z"/>
<path d="M2145 2193 c-8 -8 -15 -25 -15 -38 0 -32 -56 -95 -84 -95 -65 0 -61
-92 7 -136 39 -26 120 -31 152 -10 12 8 50 20 84 26 34 6 68 13 76 16 7 3 26
-8 42 -23 17 -16 44 -35 62 -43 40 -16 59 -2 67 51 7 47 -42 175 -77 201 -25
19 -28 19 -57 4 -29 -15 -34 -15 -89 8 -32 13 -80 31 -106 39 -42 13 -50 13
-62 0z"/>
<path d="M2172 1789 c-29 -11 -65 -27 -80 -37 -52 -34 -89 -41 -139 -26 -41
13 -53 12 -95 -2 -44 -14 -48 -18 -48 -48 0 -54 33 -75 138 -88 69 -9 99 -9
129 0 48 16 125 17 228 4 99 -12 108 -16 140 -57 27 -37 73 -55 138 -55 72 0
112 77 52 100 -13 5 -26 14 -30 19 -3 6 -15 11 -26 11 -11 0 -31 12 -45 28
-60 65 -81 83 -112 98 -18 8 -36 22 -39 30 -6 16 -33 19 -33 4 0 -19 -46 -10
-80 15 -19 14 -36 25 -39 24 -3 0 -30 -9 -59 -20z"/>
<path d="M2188 1473 c-20 -2 -42 -10 -48 -18 -13 -16 -5 -37 13 -33 16 2 79
-12 92 -22 6 -4 42 -10 82 -13 40 -3 82 -11 93 -17 34 -18 35 -4 4 28 -16 16
-44 32 -62 35 -19 4 -45 16 -59 27 -25 19 -38 21 -115 13z"/>
</g>
</svg>
